<svg width="50" height="51" viewBox="0 0 50 51" fill="none" xmlns="http://www.w3.org/2000/svg">
<rect y="0.723633" width="50" height="50" rx="25" fill="#E8F2EE"/>
<path d="M19.1666 16.3902V35.0569H30.8333V16.3902H19.1666ZM18 14.0569H32C32.3094 14.0569 32.6061 14.1798 32.8249 14.3986C33.0437 14.6174 33.1666 14.9141 33.1666 15.2236V36.2236C33.1666 36.533 33.0437 36.8297 32.8249 37.0485C32.6061 37.2673 32.3094 37.3902 32 37.3902H18C17.6906 37.3902 17.3938 37.2673 17.175 37.0485C16.9562 36.8297 16.8333 36.533 16.8333 36.2236V15.2236C16.8333 14.9141 16.9562 14.6174 17.175 14.3986C17.3938 14.1798 17.6906 14.0569 18 14.0569ZM25 31.5569C25.3094 31.5569 25.6061 31.6798 25.8249 31.8986C26.0437 32.1174 26.1666 32.4141 26.1666 32.7236C26.1666 33.033 26.0437 33.3297 25.8249 33.5485C25.6061 33.7673 25.3094 33.8902 25 33.8902C24.6906 33.8902 24.3938 33.7673 24.175 33.5485C23.9562 33.3297 23.8333 33.033 23.8333 32.7236C23.8333 32.4141 23.9562 32.1174 24.175 31.8986C24.3938 31.6798 24.6906 31.5569 25 31.5569Z" fill="#5BB5A2"/>
</svg>
