<svg width="50" height="51" viewBox="0 0 50 51" fill="none" xmlns="http://www.w3.org/2000/svg">
<rect y="0.723633" width="50" height="50" rx="25" fill="#E8F2EE"/>
<path d="M14.5 15.2236H35.5C35.8094 15.2236 36.1061 15.3465 36.3249 15.5653C36.5437 15.7841 36.6666 16.0809 36.6666 16.3903V35.057C36.6666 35.3664 36.5437 35.6631 36.3249 35.8819C36.1061 36.1007 35.8094 36.2236 35.5 36.2236H14.5C14.1906 36.2236 13.8938 36.1007 13.675 35.8819C13.4562 35.6631 13.3333 35.3664 13.3333 35.057V16.3903C13.3333 16.0809 13.4562 15.7841 13.675 15.5653C13.8938 15.3465 14.1906 15.2236 14.5 15.2236ZM34.3333 25.7236H15.6666V33.8903H34.3333V25.7236ZM34.3333 21.057V17.557H15.6666V21.057H34.3333Z" fill="#5BB5A2"/>
</svg>
